<svg viewBox="0 0 86.5 155" fill="none" xmlns="http://www.w3.org/2000/svg"><path id="a" d="m 14.447444,0 h 57.999995 l 6,6 -9.999995,10 h -50 L 8.4474442,6 Z" fill="#212121" /><path id="b" d="m 70.508474,17.237288 10,-9.9999998 6,7.9999998 v 56 l -6,6 -10,-10 v -50 6 z" fill="none" /><path id="c" d="m 70.508474,87.847457 10,-10 6,8 v 55.999993 l -6,6 -10,-10 v -49.999993 6 z" fill="#212121" /><path id="d" d="m 18.447442,139 h 50 l 10,10 -6,6 h -58 l -6.0000012,-6 z" fill="#212121" /><path id="e" d="m 6,77.847453 10,10 v 49.999997 l -10,10 -6,-6 V 83.847453 Z" fill="none" /><path id="f" d="M 6,7 16,17 V 67 L 6,77 0,71 V 13 Z" fill="#212121" /><path id="g" d="m 17.447444,69.711865 h 52 l 7.999996,8 -7.999996,8 h -52 l -8.0000005,-8 z" fill="#212121" /><path id="h" d="m 51.25,42.237289 a 8,8 0 0 1 -8,8 8,8 0 0 1 -8,-8 8,8 0 0 1 8,-8 8,8 0 0 1 8,8 z" fill="none" /><path id="i" d="m 51.25,112.84745 a 8,8 0 0 1 -8,8 8,8 0 0 1 -8,-8 8,8 0 0 1 8,-8 8,8 0 0 1 8,8 z" fill="none" /></svg>