<svg viewBox="0 0 86.5 120.25" fill="none" xmlns="http://www.w3.org/2000/svg"><path id="r1-c1" fill="none" d="M 0,0 H 16 V 16 H 0 Z" /><path id="r1-c2" fill="#212121" d="m 17.625,0 h 16 v 16 h -16 z" /><path id="r1-c3" fill="#212121" d="m 35.25,0 h 16 v 16 h -16 z" /><path id="r1-c4" fill="#212121" d="m 52.875,0 h 16 v 16 h -16 z" /><path id="r1-c5" fill="none" d="m 70.5,0 h 16 v 16 h -16 z" /><path id="r2-c1" fill="#212121" d="m 0,17.375 h 16 v 16 H 0 Z" /><path id="r2-c2" fill="none" d="m 17.625,17.375 h 16 v 16 h -16 z" /><path id="r2-c3" fill="none" d="m 35.25,17.375 h 16 v 16 h -16 z" /><path id="r2-c4" fill="none" d="m 52.875,17.375 h 16 v 16 h -16 z" /><path id="r2-c5" fill="#212121" d="m 70.5,17.375 h 16 v 16 h -16 z" /><path id="r3-c1" fill="#212121" d="m 0,34.75 h 16 v 16 H 0 Z" /><path id="r3-c2" fill="none" d="m 17.625,34.75 h 16 v 16 h -16 z" /><path id="r3-c3" fill="none" d="m 35.25,34.75 h 16 v 16 h -16 z" /><path id="r3-c4" fill="none" d="m 52.875,34.75 h 16 v 16 h -16 z" /><path id="r3-c5" fill="#212121" d="m 70.5,34.75 h 16 v 16 h -16 z" /><path id="r4-c1" fill="none" d="m 0,52.125 h 16 v 16 H 0 Z" /><path id="r4-c2" fill="#212121" d="m 17.625,52.125 h 16 v 16 h -16 z" /><path id="r4-c3" fill="#212121" d="m 35.25,52.125 h 16 v 16 h -16 z" /><path id="r4-c4" fill="#212121" d="m 52.875,52.125 h 16 v 16 h -16 z" /><path id="r4-c5" fill="none" d="m 70.5,52.125 h 16 v 16 h -16 z" /><path id="r5-c1" fill="#212121" d="m 0,69.5 h 16 v 16 H 0 Z" /><path id="r5-c2" fill="none" d="m 17.625,69.5 h 16 v 16 h -16 z" /><path id="r5-c3" fill="none" d="m 35.25,69.5 h 16 v 16 h -16 z" /><path id="r5-c4" fill="none" d="m 52.875,69.5 h 16 v 16 h -16 z" /><path id="r5-c5" fill="#212121" d="m 70.5,69.5 h 16 v 16 h -16 z" /><path id="r6-c1" fill="#212121" d="m 0,86.875 h 16 v 16 H 0 Z" /><path id="r6-c2" fill="none" d="m 17.625,86.875 h 16 v 16 h -16 z" /><path id="r6-c3" fill="none" d="m 35.25,86.875 h 16 v 16 h -16 z" /><path id="r6-c4" fill="none" d="m 52.875,86.875 h 16 v 16 h -16 z" /><path id="r6-c5" fill="#212121" d="m 70.5,86.875 h 16 v 16 h -16 z" /><path id="r7-c1" fill="none" d="m 0,104.25 h 16 v 16 H 0 Z" /><path id="r7-c2" fill="#212121" d="m 17.625,104.25 h 16 v 16 h -16 z" /><path id="r7-c3" fill="#212121" d="m 35.25,104.25 h 16 v 16 h -16 z" /><path id="r7-c4" fill="#212121" d="m 52.875,104.25 h 16 v 16 h -16 z" /><path id="r7-c5" fill="none" d="m 70.5,104.25 h 16 v 16 h -16 z" /></svg>